<?xml version="1.0" encoding="UTF-8"?>
<svg id="b" data-name="Layer 1" xmlns="http://www.w3.org/2000/svg" viewBox="0 0 391.7 150.6">
  <defs>
    <style>
      .c, .d {
        stroke-width: 0px;
      }

      .d {
        fill: #fff;
      }
    </style>
  </defs>
  <g>
    <path class="d" d="m128.1,73.4c-1.3-5.4-3.4-11.8-6.2-19L103.8,6.9c-.8-2.4-2.1-4.1-3.9-5.2-1.7-1.1-3.9-1.7-6.6-1.7h-56.3c-2.8,0-5.1.6-6.8,1.7-1.7,1.1-3,2.9-3.9,5.2L8.2,54.4c-2.8,7.2-4.8,13.6-6.2,19C.7,78.9,0,83.7,0,87.8v55.2c0,2.7.6,4.6,1.8,5.8,1.2,1.2,3.1,1.8,5.8,1.8h30.7c2.6,0,4.6-.6,5.8-1.8,1.2-1.2,1.8-3.1,1.8-5.8v-28.7c0-.3.3-.6.6-.6h35.8c.3,0,.6.3.6.6v28.7c0,2.7.7,4.6,2,5.8,1.3,1.2,3.4,1.8,6.2,1.8h31.6c2.6,0,4.6-.6,5.8-1.8,1.2-1.2,1.8-3.1,1.8-5.8v-55.2c0-4.2-.7-9-2-14.4Zm-79.9,1.4l9.5-30.9s0,0,0,0c.5-1.2,1.1-2.1,1.8-2.7.6-.6,1.4-.8,2.2-.8h5.2c.8,0,1.6.3,2.2.8.6.6,1.2,1.4,1.8,2.7s0,0,0,0l9.5,30.9c.1.4-.2.9-.7.9h-31c-.5,0-.8-.5-.7-.9Z"/>
    <path class="d" d="m253.8,1.8C252.7.6,250.7,0,248.1,0h-110.4c-2.6,0-4.6.6-5.8,1.8-1.2,1.2-1.8,3.1-1.8,5.8v25.3c0,2.7.6,4.6,1.8,5.8s3.1,1.8,5.8,1.8h30.1c.4,0,.7.3.7.7v102.1c0,2.7.6,4.6,1.8,5.8,1.2,1.2,3.1,1.8,5.8,1.8h33.9c2.6,0,4.6-.6,5.8-1.8,1.2-1.2,1.8-3.1,1.8-5.8V41c0-.4.3-.7.7-.7h30.1c2.6,0,4.6-.6,5.8-1.8s1.8-3.1,1.8-5.8V7.5c0-2.6-.6-4.6-1.8-5.8Z"/>
    <g>
      <path class="d" d="m390,97.4c-1.2-1.2-3.1-1.8-5.8-1.8h-30.3c-2.6,0-4.6.6-5.8,1.8-1.2,1.2-1.8,3.1-1.8,5.8v7.3c0,.3-.3.6-.6.6h-27.5c-.3,0-.6-.3-.6-.6V7.5c0-2.6-.6-4.6-1.8-5.8C314.7.6,312.8,0,310.2,0h-32.4c-2.6,0-4.6.6-5.8,1.8-1.2,1.2-1.8,3.1-1.8,5.8v135.5c0,2.7.6,4.6,1.8,5.8,1.2,1.2,3.1,1.8,5.8,1.8h106.5c2.6,0,4.6-.6,5.8-1.8,1.2-1.2,1.8-3.1,1.8-5.8v-39.9c0-2.7-.6-4.6-1.8-5.8Z"/>
      <path class="c" d="m303.5,139.8c-1.3,0-2.6-.2-3.9-.5-2.8-.8-5.3-2.3-7-4.3-2.2-2.5-3.4-5.9-3.4-9.7V25.4c0-.2-.1-.4-.3-.5-2.9-1.9-4.5-5.3-4.1-8.7.3-3,2.2-5.8,5-7.2,1.4-.7,2.8-1.1,4.3-1.1,2.5,0,5,1.1,6.8,3,1.8,1.9,2.7,4.5,2.5,7-.2,2.8-1.7,5.4-4.1,7s-.3.3-.3.5v88.3s0,4.1,0,4.1c0,1.5,0,3.1,0,4.6,0,1.1,0,2.2,0,3.3h0c0,.6,0,1.1.3,1.6.6,1.6,2.2,2.7,4.1,2.8h.3c1.7,0,3.3-1.1,4-2.8.1-.3.2-.6.3-1,0-.7,0-2.5,1.3-4,1-1,2.2-1.5,3.6-1.5,1.4,0,2.6.5,3.6,1.5,1.4,1.5,1.4,3.3,1.4,4,0,.3.2.7.3.9.7,1.7,2.4,2.8,4.3,2.8,1.8,0,3.4-1.1,4.1-2.8.1-.3.2-.6.3-1,0,0,0,0,0,0,0-.7,0-2.6,1.4-4,1-1,2.2-1.5,3.5-1.5,1.4,0,2.7.6,3.6,1.5,1.5,1.6,1.3,3.5,1.3,4.1h0c0,.3.1.6.2.9.7,1.7,2.4,2.8,4.3,2.8,1.8,0,3.4-1.1,4.1-2.8.1-.3.2-.7.3-1,0-.8,0-2.6,1.4-4,.9-1,2.2-1.5,3.6-1.5s2.7.5,3.6,1.5c1.4,1.5,1.4,3.3,1.4,4,0,.3.2.7.3,1,.7,1.7,2.3,2.8,4.1,2.8s.2,0,.3,0c1.9-.1,3.3-1.1,3.9-2.7.1-.3.2-.7.2-1.1,0-.3,0-.6,0-.9,0-1.4,0-2.8,0-4.2s-.1-.4-.3-.5c-.6-.4-1.2-.9-1.8-1.5-.6-.6-1.6-1.9-2.1-3.8-.2-.8-.4-1.7-.4-2.6s0-1,.1-1.4c.5-3.3,2.8-6.2,6-7.4,1-.4,2.1-.6,3.2-.6s2.4.2,3.6.7c3,1.3,5.2,4.1,5.7,7.3,0,.4.1.9.1,1.3,0,2.4-.9,4.6-2.5,6.4-.4.5-.9.9-1.5,1.3s-.3.3-.3.5v1.5c0,1.2,0,2.3,0,3.5,0,.7,0,1.3-.2,2-.4,2.6-1.6,5.1-3.3,7.1-2.7,3.1-6.6,4.8-10.7,4.8s-2.3-.1-3.4-.4c-2.3-.6-4.3-1.6-6.1-3.1-2.6,2.3-5.7,3.4-9.4,3.5-3.7,0-6.8-1.2-9.4-3.5-2.6,2.2-5.9,3.5-9.4,3.5s-6.7-1.2-9.3-3.5c-2.6,2.3-5.8,3.5-9.3,3.5Z"/>
    </g>
    <path class="c" d="m22.2,142.8c-3.2-.3-6-2.3-7.4-5.2-2.2-4.5-.4-9.4,3.3-11.9s.3-.3.3-.5v-25c0-.3-.3-.6-.6-.6h-5.3c-2.6,0-4.7-2.1-4.7-4.7v-.3c0-2.6,2.1-4.7,4.7-4.7h22.4c2.6,0,4.7,2.1,4.7,4.7v.3c0,2.6-2.1,4.7-4.7,4.7h-6.1c-.3,0-.6.3-.6.6v25c0,.2.1.4.3.5,2.6,1.7,4.2,4.6,4.2,7.8,0,5.5-4.8,9.9-10.4,9.3Z"/>
    <path class="c" d="m105.9,142.9c-3.2-.3-6-2.3-7.4-5.2-2.2-4.5-.5-9.4,3.2-11.9s.3-.3.3-.5v-25c0-.3-.3-.6-.6-.6h-5.3s-.2,0-.2,0h-27.8s-20.6,0-20.6,0c-.2,0-.3,0-.5,0-1.3-.1-2.4-.8-3.3-1.8-.7-.9-1.1-2-1.1-3.1,0-2.5,1.9-4.6,4.3-4.9.2,0,.3,0,.5,0h53.9c.3,0,.6-.3.6-.6v-2.1c0-3.5-.3-6.8-.8-9.7-.6-3-1.3-5.8-2.3-8.5l-14.4-33.9c-1.4-3.4-2.9-6.2-4.4-8.4-.9-1.3-2.6-2-5.2-2h-19.7c-2.6,0-4.3.7-5.2,2-1.5,2.2-3,5-4.4,8.4l-14.3,33.7-.2.5c-.1.3-.2.7-.4,1.1-.2.5-.3.9-.4,1.4,0,0,0,.3,0,.3-.7,2.5-.9,3.8-1,4.1,0,0,0,.1,0,.2,0,.2,0,.3,0,.4,0,0,.2,0,.3,0,1.8,0,3.6,0,5.4,0,.3,0,2,0,3.4,1.4s1.4,2.1,1.4,3.4v.3c0,.2,0,.5,0,.7-.3,2.3-2.4,4.1-4.7,4.1H12.5c-2.3,0-4.4-1.7-4.7-4.1,0-.2,0-.4,0-.7v-.3c0-2.6,2.1-4.7,4.7-4.7h6.1c.3,0,.5-.2.6-.5s.1-.6.2-.8c0-.2.2-1.3.2-1.3.2-1,.4-1.9.7-2.9.2-.7.3-1.3.5-2,.2-.6.4-1.2.6-1.8.2-.7.5-1.4.7-2.2h0c0-.1,0-.2,0-.2v-.2c0,0,.1,0,.1,0,1.7-4,14.3-33.8,14.3-33.8,1.7-4.2,3.7-7.9,5.7-10.8,2.6-3.7,7-5.6,12.9-5.6h19.7c5.9,0,10.2,1.9,12.9,5.6,2.1,2.9,4,6.5,5.7,10.8.1.3,14.1,33.4,14.5,34.2,0,0,0,0,0,0,1.2,3.2,2.1,6.6,2.8,10.1.7,3.5,1,7.4,1,11.5v10.9s0,27.1,0,27.1c0,.2.1.4.3.5,2.6,1.7,4.2,4.6,4.2,7.8,0,5.5-4.7,9.9-10.3,9.3Z"/>
    <path class="c" d="m193.1,142.8c-4.9,0-9.2-3.7-9.6-8.6s1.3-6.6,4.1-8.4.3-.3.3-.5v-27.1s0,0,0-.1c0-15.9,0-30.8,0-46.6s-.2-.6-.5-.6c-.8,0-1.6-.5-2-1.2-.7-1-.6-2.3.1-3.3l4.5-6.4c.6-.9,1.6-1.4,2.7-1.4s2.1.5,2.7,1.4l4.6,6.4c.7,1,.8,2.3.1,3.3-.6.8-1.4,1.1-1.9,1.2s-.5.3-.5.6c0,15.9,0,30.8,0,46.6,0,0,0,0,0,.1v27c0,.2.1.4.3.5,2.6,1.7,4.2,4.6,4.2,7.8s-2.1,7-5.7,8.6-2.2.7-3.3.7h0Z"/>
  </g>
  <path class="c" d="m207.7,33.3c-1,0-2-.4-2.9-1.1-.8-.6-1.5-1.5-1.9-2.5l-2.6-5.9-2.9,6.5c-.8,1.8-2.6,3-4.5,3s-3.7-1.2-4.5-2.9l-2.9-6.6-2.8,6.5c-.6,1.5-1.9,2.6-3.3,2.9-.4.1-.8.2-1.3.2-2,0-3.8-1.2-4.5-3l-2.2-5.1c0-.2-.3-.4-.5-.4h-15c-.2,0-.4.1-.5.3-2.2,3.1-5.9,4.7-9.8,3.9s-2.1-.6-3-1.2c-2.9-1.9-4.5-4.9-4.4-8.1,0-4.9,4.4-9.2,9.3-9.3,0,0,0,0,.1,0,3.2,0,6.1,1.6,7.9,4.3s.3.3.5.3h18.5c1,0,1.9.3,2.7.8.3.2.6.4.8.7l.9-2.1c.7-1.6,1.4-3.2,2.1-4.8.6-1.3,1.6-2.3,2.9-2.8.5-.2,1.1-.3,1.7-.3,2,0,3.7,1.2,4.5,2.9l2.9,6.6,2.9-6.6c.8-1.8,2.6-2.9,4.5-2.9s3.8,1.2,4.5,2.9l3,6.9c.9-.9,2.1-1.4,3.5-1.4h18.8c.2,0,.4-.1.5-.3,1.8-2.6,4.7-4.3,7.9-4.3,4.2,0,7.8,2.7,9,6.5,1,3.4.2,7-2.3,9.5-1.8,1.8-4.2,2.8-6.7,2.8s-6-1.5-7.8-4.1-.3-.3-.5-.3h-15.2c-.2,0-.5.1-.6.3l-2.2,5.1c-.6,1.5-2,2.6-3.8,2.9-.3,0-.5,0-.8,0Z"/>
</svg>