<?xml version="1.0" encoding="UTF-8"?>
<svg id="a" data-name="Layer 1" xmlns="http://www.w3.org/2000/svg" viewBox="0 0 346.7 133.3">
  <defs>
    <style>
      .b {
        fill: #010101;
      }

      .b, .c {
        stroke-width: 0px;
      }

      .c {
        fill: #fff;
      }
    </style>
  </defs>
  <g>
    <path class="b" d="m113.4,65c-1.2-4.8-3-10.4-5.5-16.8L91.8,6.1c-.7-2.1-1.9-3.6-3.4-4.6s-3.5-1.5-5.8-1.5h-49.8c-2.5,0-4.5.5-6,1.5-1.5,1-2.7,2.5-3.4,4.6L7.2,48.1c-2.5,6.4-4.3,12-5.5,16.8-1.2,4.8-1.8,9.1-1.8,12.8v48.9c0,2.3.5,4,1.6,5.1,1,1.1,2.7,1.6,5.1,1.6h27.2c2.3,0,4-.5,5.1-1.6s1.6-2.7,1.6-5.1v-25.3c0-.3.3-.6.6-.6h31.5c.3,0,.6.3.6.6v25.3c0,2.3.6,4,1.8,5.1,1.2,1.1,3,1.6,5.5,1.6h28c2.3,0,4-.5,5.1-1.6,1-1,1.6-2.7,1.6-5.1v-48.9c0-3.7-.6-8-1.8-12.8Zm-70.7,1.2l8.4-27.3s0,0,0,0c.5-1.1,1-1.9,1.6-2.4.6-.5,1.2-.7,1.9-.7h4.6c.7,0,1.4.2,1.9.7.6.5,1.1,1.3,1.6,2.4s0,0,0,0l8.4,27.3c.1.4-.2.8-.6.8h-27.4c-.4,0-.7-.4-.6-.8Z"/>
    <path class="b" d="m224.6,1.6C223.6.5,221.9,0,219.5,0h-97.7c-2.3,0-4,.5-5.1,1.6s-1.6,2.8-1.6,5.1v22.4c0,2.4.5,4,1.6,5.1s2.8,1.6,5.1,1.6h26.6c.3,0,.6.3.6.6v90.3c0,2.3.5,4,1.6,5.1,1,1,2.7,1.6,5.1,1.6h30c2.3,0,4-.5,5.1-1.6,1-1,1.6-2.7,1.6-5.1V36.3c0-.3.3-.6.6-.6h26.6c2.3,0,4-.5,5.1-1.6s1.6-2.7,1.6-5.1V6.7c0-2.3-.5-4-1.6-5.1Z"/>
    <g>
      <path class="b" d="m345.1,86.2c-1-1-2.8-1.6-5.1-1.6h-26.8c-2.3,0-4,.5-5.1,1.6-1,1-1.6,2.7-1.6,5.1v7h-25.4V6.7c0-2.3-.5-4-1.6-5.1C278.5.5,276.8,0,274.5,0h-28.7c-2.3,0-4,.5-5.1,1.6-1,1-1.6,2.8-1.6,5.1v120c0,2.3.5,4,1.6,5.1,1.1,1,2.8,1.6,5.1,1.6h94.2c2.3,0,4-.5,5.1-1.6,1-1,1.6-2.8,1.6-5.1v-35.3c0-2.3-.5-4-1.6-5.1Z"/>
      <path class="c" d="m268.6,122.3c-1,0-2.1-.1-3.1-.4-2.2-.6-4.2-1.8-5.6-3.4-1.7-2-2.7-4.7-2.7-7.7V21.8c0-.2-.1-.4-.3-.5-2.4-1.4-3.9-4-3.6-6.8.2-2.2,1.6-4.3,3.7-5.4,1-.5,2.1-.8,3.2-.8,1.9,0,3.7.8,5,2.3,1.3,1.5,2,3.4,1.9,5.2-.2,2.3-1.5,4.4-3.5,5.5s-.3.3-.3.5v78.8s0,3.6,0,3.6c0,1.3,0,2.7,0,4.1,0,1,0,2,0,3,0,.6.1,1.2.3,1.8.7,1.9,2.6,3.2,4.8,3.3h.3c2.1,0,4-1.3,4.8-3.3.2-.4.3-.8.4-1.3h0c0-.5-.1-1.7.8-2.7.6-.6,1.4-.9,2.2-.9.9,0,1.6.3,2.2.9.9.9.8,2.1.8,2.6h0c0,.6.2,1,.4,1.4.8,2,2.8,3.3,5,3.3,2.1,0,4-1.3,4.8-3.3.2-.4.3-.9.4-1.4,0,0,0,0,0,0,0,0,0,0,0,0,0-.6,0-1.7.9-2.6.6-.6,1.3-.9,2.2-.9.9,0,1.6.3,2.2.9.9,1,.8,2.2.8,2.6v.2c0,.4.2.8.3,1.2.8,2,2.8,3.3,5.1,3.3,2.2,0,4.1-1.3,4.9-3.3.2-.4.3-.9.3-1.3,0-.6,0-1.8.8-2.7.6-.6,1.3-.9,2.2-.9s1.6.3,2.2.9c.9.9.8,2.1.8,2.6h0c0,.6.2,1,.4,1.4.8,2,2.7,3.3,4.8,3.3s.2,0,.4,0c2.2-.1,3.9-1.3,4.6-3.3.1-.4.2-.8.3-1.2,0-.3,0-.6,0-.9,0-1.5,0-3,0-4.4s-.1-.4-.3-.5c-.7-.4-1.3-.8-1.8-1.4-.4-.4-1.2-1.4-1.6-2.8-.2-.6-.3-1.3-.3-1.9s0-.7,0-1c.4-2.5,2.1-4.6,4.5-5.5.7-.3,1.6-.4,2.4-.4s1.8.2,2.6.5c2.2.9,3.9,3,4.2,5.4,0,.3,0,.6,0,1,0,1.8-.7,3.4-1.9,4.7-.5.5-1,.9-1.6,1.3s-.3.3-.3.5c0,1.7,0,3.4,0,5.1,0,.5,0,1.1-.1,1.5-.3,2.1-1.2,4-2.6,5.6-2.1,2.4-5.2,3.8-8.4,3.8s-1.8-.1-2.7-.3c-2.3-.6-4.1-1.6-5.7-3.3-2.2,2.4-5,3.6-8.3,3.6-3.3,0-6.1-1.2-8.3-3.6-2.2,2.3-5.2,3.6-8.3,3.6s-6-1.3-8.3-3.6c-2.2,2.3-5.1,3.6-8.2,3.6Z"/>
    </g>
    <path class="c" d="m30.9,80.9H11c-1.6,0-2.9,1.3-2.9,2.9v.3c0,1.6,1.3,2.9,2.9,2.9h6.5v25c-2.3,1.1-4,3.5-4,6.3s3.1,7,7,7,7-3.1,7-7-1.6-5.1-3.9-6.3v-25h7.3c1.6,0,2.9-1.3,2.9-2.9v-.3c0-1.6-1.3-2.9-2.9-2.9Z"/>
    <path class="c" d="m97.6,111.9v-31s0-1.4,0-1.4v-2.3c0-3.6-.3-6.9-.9-9.9-.6-3-1.4-5.9-2.4-8.7,0,0-12.8-30.3-12.8-30.3-1.5-3.7-3.2-6.8-4.9-9.3-2.1-2.9-5.5-4.4-10.3-4.4h-17.4c-4.8,0-8.2,1.5-10.3,4.4-1.8,2.5-3.4,5.6-4.9,9.3,0,0-11.1,26.3-12.6,29.9h0c0,.1,0,.3,0,.3h0c-.2.7-.4,1.3-.6,2-.2.5-.3,1.1-.5,1.6-.2.6-.3,1.1-.5,1.7-.2.8-.4,1.6-.6,2.4,0,.4-.1.7-.2,1.1-.2,1-.4,2-.5,3.1,0,.4,0,.8-.1,1.3,0,.1,0,.3,0,.4,0,0,0,.1,0,.2s0,.1,0,.2h-6.7c-1.6,0-2.9,1.3-2.9,2.9v.2c0,.1,0,.3,0,.4.2,1.4,1.4,2.5,2.8,2.5h19.8c1.5,0,2.6-1.1,2.9-2.5,0-.1,0-.3,0-.4v-.2c0-1.6-1.3-2.9-2.9-2.9h-7.1c0-.8.2-1.6.3-2.4,0-.3,0-.5.1-.8,0,0,0,0,0,0,0-.3.1-.6.2-1,0-.3.1-.7.2-1,.3-1.3.6-2.6.9-3.8,0,0,0-.2,0-.3.1-.4.2-.8.4-1.2.1-.4.2-.7.3-1.1,0,0,0-.1,0-.2v-.3c.1,0,12.8-29.8,12.8-29.8,1.3-3.1,2.7-5.7,4-7.7,1.1-1.6,3-2.4,5.7-2.4h17.4c2.8,0,4.6.8,5.7,2.4,1.4,2,2.7,4.6,4,7.7l12.7,30c.8,2.4,1.5,5,2.1,7.7.5,2.7.8,5.7.8,8.9v2.2h0c0,.1,0,1.5,0,1.5h-52.4c-.1,0-.2,0-.3,0-1.5.2-2.7,1.4-2.7,3s.2,1.4.7,1.9c.5.6,1.2,1,2,1.1.1,0,.2,0,.3,0h17.2s3.9,0,3.9,0h20.1s4.5,0,4.5,0c0,0,0,0,.1,0h6.5v25c-2.3,1.1-4,3.5-4,6.3s3.1,7,7,7,7-3.1,7-7-1.6-5.1-3.9-6.3Z"/>
    <path class="c" d="m174,112.1c-.2-.1-.3-.3-.3-.5v-24.8h0v-48s.2,0,.2,0c.6,0,1.1-.3,1.3-.8.3-.5.2-1.1,0-1.5l-3.2-4.8c-.3-.4-.8-.7-1.2-.7s-1,.3-1.2.7l-3.1,4.8c-.3.5-.3,1.1,0,1.5.3.5.8.8,1.3.8h.1v48s0,0,0,0v24.8c0,.2-.1.4-.3.5-2.2,1.2-3.7,3.6-3.6,6.3s3.2,6.6,6.8,6.6,7-3.1,7-6.9-1.5-4.9-3.6-6.1Z"/>
  </g>
  <path class="c" d="m182.1,27.5c-.6-.4-1-1-1.3-1.7l-3.2-7.4c-.1-.2-.4-.2-.5,0l-3.5,7.9c-.5,1.1-1.6,1.8-2.8,1.8s-2.3-.7-2.8-1.8l-3.5-8c-.1-.2-.4-.2-.5,0l-3.5,7.8c-.4.9-1.2,1.6-2.1,1.8-.3,0-.5.1-.8.1-1.2,0-2.3-.7-2.8-1.8l-2.3-5.2c0-.2-.3-.4-.5-.4h-14.8c-.2,0-.4.1-.5.3-1.3,2.2-3.6,3.5-6.1,3.5s-3.7-.7-5-2.1-2-3.1-2-5c0-3.6,3.3-6.9,6.9-6.9,0,0,0,0,.1,0,2.6,0,5,1.4,6.2,3.7.1.2.3.3.5.3h17.1c.6,0,1.2.2,1.7.5,0,0,.3.2.6.5.3.3.5.6.6.8,0,0,0,.2,0,.2,0,0,0,.1,0,.2,0,0,0,0,0,0,0,0,0,0,0,0,0,0,.2,0,.2,0,0,0,.2,0,.2,0,0,0,0,0,.1-.1.2-.5.4-1,.6-1.3,1-2.2,1.9-4.3,2.9-6.5,0-.2.6-1.3,1.8-1.7,1.6-.6,3.2.2,3.8,1.6l3.5,8c.1.2.4.2.5,0l3.5-7.9c.5-1.1,1.6-1.8,2.8-1.8s2.3.7,2.8,1.8l3.5,7.8c.1.2.4.2.6,0l.2-.4c.5-1.1,1.6-1.9,2.8-1.9h17.3c.2,0,.4-.1.5-.3,1.2-2.3,3.6-3.7,6.2-3.7h0c3,0,5.8,1.9,6.6,4.8.8,2.6.1,5.3-1.7,7.1-1.3,1.3-3.1,2.1-5,2.1s-4.8-1.3-6.1-3.5c-.1-.2-.3-.3-.5-.3h-15.4s-2.4,5.6-2.4,5.6c-.4.9-1.3,1.6-2.3,1.8-.7.1-1.4,0-2.2-.6Z"/>
</svg>