<?xml version="1.0" encoding="UTF-8"?>
<svg id="b" data-name="Layer 1" xmlns="http://www.w3.org/2000/svg" viewBox="0 0 688.9 747.6">
  <defs>
    <style>
      .c {
        fill: #020202;
      }

      .c, .d, .e {
        stroke-width: 0px;
      }

      .d {
        fill: #010101;
      }

      .e {
        fill: #fff;
      }
    </style>
  </defs>
  <path class="c" d="m.5,371.3c0-35.5-.5-71.1.1-106.6,1-58,25.9-102.9,76.1-132.7,61.9-36.6,124.2-72.7,186.3-108.9,53.4-31.1,107.5-30.4,160.5-.5,63.1,35.5,125.5,72.1,187.6,109.4,47.2,28.4,74.2,71.5,75.8,126.2,2.4,79.3,2.8,158.8,0,238.1-1.9,51.2-27.7,92.7-72.2,119.5-65.2,39.2-130.9,77.6-197.5,114.4-45,24.8-92.6,20.1-139.6,4.2-32.7-11.1-60.6-31-89.8-48.6-37.1-22.4-73.8-45.4-111.1-67.6C27.2,588.6,4.1,543.3,1,487.6c-2.1-38.7-.4-77.5-.4-116.3,0,0-.1,0-.2,0Z"/>
  <path class="e" d="m256.5,695.6l-185.2-109.5c-25.1-14.2-49.3-59.6-48.9-90.9l-1.7-224.1c-.2-27.2,19.4-36.7,43.7-21.2l196.6,123.8c22.8,14.6,40,46.8,38.6,71.9l-2.2,232.4c-1.3,22.5-19.5,30.3-40.8,17.5Z"/>
  <g>
    <path class="d" d="m262.4,535.2c-2.1-11.5-5.4-25.4-9.9-41.8l-29.4-108c-1.4-5.4-3.5-10-6.3-13.9-2.8-3.9-6.3-7.2-10.6-9.9l-91.3-57.9c-4.6-2.9-8.3-4.2-11.1-3.8-2.8.3-4.9,2.4-6.3,6.1l-29,72.7c-4.5,11.1-7.7,21.2-9.8,30.3-2.1,9.1-3.1,17.6-3,25.7l1.1,105.5c0,5.1,1.1,9.3,3,12.7,1.9,3.4,5.1,6.5,9.5,9.1l50,30.3c4.3,2.6,7.4,3.3,9.3,2.3,1.9-1.1,2.8-4.1,2.8-9.1l-.4-54c0-.7.5-1,1.1-.6l57.4,35.2c.6.4,1.1,1.3,1.1,2l.3,53.6c0,5,1.1,9.2,3.2,12.7,2.1,3.5,5.4,6.6,9.9,9.3l50.1,30.3c4.2,2.5,7.2,3.2,9.1,2.2,1.8-1.1,2.8-4.1,2.8-9l-.3-102.9c0-7.8-1.1-17.5-3.2-29Zm-128.1-76.8l15-49.1c0,0,0-.1,0-.1.9-1.8,1.8-2.9,2.8-3.3,1-.4,2.2-.2,3.5.6l8.5,5.3c1.4.8,2.5,2.1,3.6,3.8,1,1.7,2,4,2.9,6.9,0,0,0,.1,0,.2l15.7,68.1c.2,1-.3,1.5-1.1,1l-50-31c-.8-.5-1.3-1.7-1.1-2.4Z"/>
    <path class="e" d="m117.2,485.6c0,1.3-.3,2.2-.9,2.8-.7.7-1.8.7-3.1,0l-13.6-8.4c-.6-.4-1.1-.1-1.1.6l.5,53.7c0,.5.3,1.1.6,1.5,3.9,4.6,6.6,10.9,6.7,16.3,0,7.6-5.2,10.5-11.7,6.4-6.6-4.1-12.1-14.3-11.6-21.7.3-4.7,2.8-7.4,6.4-7.2.4,0,.6-.2.6-.7,0-6.2-.4-46.1-.5-53.8,0-.7-.5-1.6-1.1-2l-12.2-7.5c-1.3-.8-2.4-2.2-3.2-3.8-.6-1.3-1-2.7-1-3.9,0-2.9,1.8-4.1,4-2.7l36.9,22.8c2.2,1.4,4.1,4.8,4.1,7.7Z"/>
    <path class="e" d="m240.5,633.8c0,7.4-5.1,10.3-11.5,6.4-5.6-3.5-10.5-11.6-11.2-18.5-.6-6.4,2.1-10,6.3-9.9.4,0,.6-.3.6-.8l-.2-52.9c0-.7-.5-1.6-1.1-1.9l-95.1-58.5c-.2-.1-.3-.2-.5-.3-1.2-.9-2.2-2.2-3-3.7-.6-1.3-1-2.7-1-3.9,0-2.7,1.7-3.8,3.9-2.7.2,0,.3.2.5.3s.2.1.3.2h0s94.8,58.5,94.8,58.5c.6.4,1.1,0,1.1-.6v-7.7c0-6.8-.6-13.6-1.6-20-1-6.4-2.3-12.8-3.8-18.8l-23.4-78.7c-2.4-8.2-5-15.4-7.6-21.4-2.2-5.1-5.9-9.3-11.3-12.7l-33.2-20.9c-5.9-3.7-9.8-4.3-12-2-2.6,2.8-4.9,6.8-7.1,11.9l-21.3,52c-1.4,4.1-2.7,8.9-3.6,14.3-.5,3.1-.9,6.5-1.1,10.2,0,.7.5,1.7,1.1,2.1l13.3,8.3c1.7,1,3.2,3.3,3.8,5.6.2.7.3,1.5.3,2.2,0,2.9-1.8,4.1-4,2.7l-36.9-22.8c-2.3-1.4-4.1-4.9-4.2-7.8,0-.7,0-1.3.3-1.8.6-1.5,2-2,3.8-.9l12.4,7.7c.6.4,1.1.1,1.1-.5.2-4.4.6-8.5,1.3-12.2,1-5.8,2.4-11.1,4.2-16l21.3-52.1c2.5-6.1,5.5-10.8,8.7-14,3.7-3.6,9.9-2.7,18.5,2.8l33.2,21c8.3,5.3,14.4,12,18,20.2,3.2,7.2,6.2,15.7,9,25.3l23.4,78.9c0,0,0,.1,0,.2,1.8,7,3.3,14.1,4.4,21.1,1.1,7,1.6,14.3,1.6,21.8l.3,73.4c0,.5.3,1.1.6,1.5,3.8,4.5,6.4,10.6,6.4,15.9Z"/>
  </g>
  <g>
    <path class="e" d="m562.9,166.6c-.6-2.6-3.7-5.4-9.3-8.5l-212.6-119.3c-4.6-2.6-8.8-4-12.5-4-3.7,0-7.3,1.1-11,3.5l-34.3,22.9c-3.6,2.4-5.1,4.7-4.7,6.9.4,2.2,2.9,4.7,7.3,7.3l52.2,30.9c.7.4.8,1,.3,1.3l-138.1,89.5c-3.5,2.2-5,4.5-4.6,6.8.4,2.3,2.7,4.9,6.9,7.8l56.3,38.2c4.5,3.1,8.6,4.8,12.3,5.2,3.6.4,7.3-.6,11-2.9l146.5-91c.5-.3,1.5-.3,2.3.2l59.3,35.1c5.4,3.2,10.2,4.9,14.5,5.2,4.3.3,8.5-.8,12.7-3.3l40.2-24.1c4.2-2.5,6.1-5.1,5.4-7.7Z"/>
    <path class="d" d="m265.5,224c-5.4,3.4-15.4,2.5-22-2-5.8-4-7.3-9.8-3.3-13.3,3.7-3.2,10.4-3.7,16.6-1.9.6.2,1.1.1,1.5,0,36.3-23.1,73.3-46.6,110.9-70.6,0,0,.1,0,.2-.1,0,0,0,0,0-.1,0,0-.2-.1-.2-.1-.4-.2-.8-.5-1.2-.7-.7-.4-1.1-1-.9-1.5.1-.5.7-.9,1.6-.9h.8c0,0,6-.5,6-.5l7.5-.6c1.7-.1,3.4.9,3.2,1.9l-.7,4.7-.5,3.7v.5c-.2,1.1-2.5,1.4-4,.5-.4-.3-.8-.5-1.3-.8,0,0,0,0-.1,0-.1,0-.2,0-.3,0-38,24-75.2,47.6-111.8,70.8,0,.2-.4.5-.2,1,2.5,3.7,2,7.7-1.9,10.1Z"/>
    <path class="d" d="m514.1,158.9c-5.9-3.5-13.8-4.8-20-3.8-.6,0-1.3,0-1.8-.3l-39.5-22.7c-2.2-1.3-5.2-1.8-7.6-1.3l-3.5.7c-.8.2-1.8-.4-1.6-.9l6.4-14.2c.6-1.4-.3-3.2-2.5-4.4-2.2-1.2-5.1-1.7-7.4-1.3l-23.3,4.6c-.8.2-1.8-.4-1.6-.9l6.3-14.2c.6-1.4-.3-3.1-2.4-4.3-2.1-1.2-5-1.7-7.3-1.2l-22.8,4.6c-.8.2-1.7-.4-1.5-.9l1-2.2c.6-1.4-.3-3.1-2.3-4.3l-35.6-20.4c-.5-.3-.7-.7-.5-1,1.4-3.5-.8-7.6-6-10.6-6.6-3.7-17.3-4-22.5-.6-5.7,3.6-4.5,9.9,2.5,14,4.9,2.9,11.5,3.9,16.8,3,.5,0,1.1,0,1.6.3l31.7,18.3c.3.2.5.5.4.7l-4,8.9c-.8,1.7.7,3.8,3.8,5,1.9.7,4.1.8,6,.5l22.4-4.5c.8-.2,1.8.4,1.5.9l-6.3,14.2c-.6,1.4.3,3.1,2.4,4.3,2.1,1.2,4.9,1.7,7.3,1.3l23.1-4.5c.8-.2,1.8.4,1.6.9l-6.4,14.2c-.7,1.5.3,3.2,2.4,4.4.3.2.5.3.8.4,2.2,1,4.7,1.3,6.7.9l15-2.9c.4,0,.9,0,1.2.2l35.3,20.4c.5.3.7.7.6,1.1-1.2,3.6,1.2,8,6.9,11.3,8.2,4.8,20.1,5.5,26.3,1.6,5.7-3.6,4.1-10.8-3.5-15.2Z"/>
  </g>
  <g>
    <path class="e" d="m636.1,446.9c-1.9-1-5-.2-9.4,2.4l-51,30.4c-4.6,2.7-7.9,5.8-9.9,9.2-2.1,3.4-3.1,7.5-3.1,12.3v14.3s-50.6,30.7-50.6,30.7l-1.5-196.9c0-5.2-1.2-8.5-3.4-9.7-2.3-1.2-5.9-.5-10.9,2.1l-63.3,32.9c-5.3,2.8-9.2,6-11.5,9.6-2.3,3.7-3.4,8.2-3.3,13.6l6.7,261.5c.1,4.9,1.3,7.7,3.7,8.4,2.3.7,6-.5,11-3.7l185.8-118.2c4.3-2.7,7.4-5.7,9.3-8.9,1.9-3.2,2.9-7.1,3-11.7l1.2-69.6c0-4.7-.8-7.5-2.7-8.5Z"/>
    <path class="c" d="m612.9,487.9c0,3.3-1.3,7.1-3.3,10.6-.9,1.6-2,3.1-3.2,4.6-.4.4-.6,1-.6,1.4,0,3.6-.1,7.2-.2,10.8,0,1-.1,2-.3,3.1-.6,4.3-2.3,9-4.8,13.4-3.7,6.7-9.2,12.9-15.2,16.7-1.6,1-3.3,1.8-4.9,2.4-4.3,1.6-7.9,1.7-10.8,0-.1,0-.3-.1-.4-.2-.1.2-.3.5-.4.7-4.1,7.3-9.3,13.1-15.7,17.1-6.4,4-11.7,4.9-15.9,2.6-.1,0-.3-.1-.4-.2-.1.2-.3.4-.4.7-4.2,7.3-9.9,13.6-16.2,17.5-6.2,3.9-12,4.8-16.4,2.8-.1,0-.3-.1-.4-.2-.1.2-.3.5-.4.7-4.2,7.4-10,13.7-16.3,17.7-2,1.3-4.1,2.3-6.2,3-4.5,1.6-8.3,1.6-11.1.2-3.5-1.8-5.5-5.8-5.6-11.9l-.2-13.8c-.1-7.9-.3-15.7-.3-15.7l-2.9-163.1c0-.5-.3-.8-.8-.8-5.1.2-8.6-3.5-8.1-10.2.4-5,3.3-10.7,7.3-15.1,10.2-11.1,21.1-7.5,20.4,3.1-.3,5.3-3.3,11.3-7.5,15.7-.5.5-.7,1.1-.7,1.6l2.6,170.8c0,2.4,0,4.9,0,7.5,0,2.8,0,5.6.2,8.5,0,2.1,0,4.2.1,6.3,0,1.5.3,2.7.9,3.6,1.7,3.2,6,3.6,11.1.7l.5-.3c4.9-3.1,9.2-8.8,11-14.3.4-1.2.7-2.4.8-3.6v-.2c0-.9-.2-2.9,1.2-5.3.6-1.1,1.8-2.6,3.7-3.8,1.5-.9,2.7-1.1,3.7-.8,1.5.7,1.4,2.6,1.4,3.7v.3c.2,1,.4,1.8.8,2.5,1.8,3.3,6.1,3.6,11.2.5,4.8-3,9-8.7,10.7-14.1.4-1.2.7-2.4.8-3.5,0,0,0-.2,0-.2,0-1.1,0-3,1.4-5.4.6-1,1.7-2.5,3.5-3.6,1.4-.9,2.7-1.1,3.5-.7,1.4.7,1.3,2.7,1.3,3.7v.4c.1,1,.3,1.8.7,2.5,1.7,3.3,6,3.6,11,.5,4.7-3,8.8-8.5,10.5-13.8.4-1.2.6-2.3.7-3.4v-.2c0-1.1,0-3,1.3-5.4.9-1.5,2.1-2.7,3.5-3.6,1.4-.8,2.6-1.1,3.5-.7,1.4.7,1.3,2.6,1.3,3.6v.3c.1,1,.4,1.8.8,2.5,1.8,3.5,6,3.8,11,.4,4.7-3.3,8.2-8.1,9.7-13.2.3-1,.5-2,.6-3.1.1-.7.2-1.4.2-2.1,0-3.2,0-6.4.1-9.6,0-.5-.2-.7-.6-.7-1,.1-2.4.1-3.7-.6-.6-.3-2-1.2-2.7-3.5-.3-.9-.5-2-.5-3.3,0-.6,0-1.3.1-1.9.7-5.1,3.8-10.9,7.9-14.9,1.3-1.3,2.7-2.4,4.2-3.3,1.6-1,3.2-1.6,4.6-1.8,3.8-.6,6.6,1.4,7.1,5.6,0,.5.1,1.1.1,1.8Z"/>
  </g>
</svg>