<?xml version="1.0" encoding="UTF-8"?>
<svg id="a" data-name="Layer 1" xmlns="http://www.w3.org/2000/svg" viewBox="0 0 346.7 133.3">
  <defs>
    <style>
      .b {
        fill: #fff;
      }

      .b, .c {
        stroke-width: 0px;
      }

      .c {
        fill: #231f20;
      }
    </style>
  </defs>
  <path class="c" d="m113.4,65c-1.2-4.8-3-10.4-5.5-16.8L91.8,6.1c-.7-2.1-1.9-3.6-3.4-4.6s-3.5-1.5-5.8-1.5h-49.8c-2.5,0-4.5.5-6,1.5-1.5,1-2.7,2.5-3.4,4.6L7.2,48.1c-2.5,6.4-4.3,12-5.5,16.8s-1.8,9.1-1.8,12.8v48.9c0,2.3.5,4,1.6,5.1,1,1.1,2.7,1.6,5.1,1.6h27.2c2.3,0,4-.5,5.1-1.6s1.6-2.7,1.6-5.1v-25.3c0-.3.3-.6.6-.6h31.5c.3,0,.6.3.6.6v25.3c0,2.3.6,4,1.8,5.1,1.2,1.1,3,1.6,5.5,1.6h28c2.3,0,4-.5,5.1-1.6,1-1,1.6-2.7,1.6-5.1v-48.9c0-3.7-.6-8-1.8-12.8Zm-70.7,1.2l8.4-27.3s0,0,0,0c.5-1.1,1-1.9,1.6-2.4.6-.5,1.2-.7,1.9-.7h4.6c.7,0,1.4.2,1.9.7.6.5,1.1,1.3,1.6,2.4s0,0,0,0l8.4,27.3c.1.4-.2.8-.6.8h-27.4c-.4,0-.7-.4-.6-.8Z"/>
  <path class="c" d="m224.6,1.6C223.6.5,221.9,0,219.5,0h-97.7c-2.3,0-4,.5-5.1,1.6s-1.6,2.8-1.6,5.1v22.4c0,2.4.5,4,1.6,5.1s2.8,1.6,5.1,1.6h26.6c.3,0,.6.3.6.6v90.3c0,2.3.5,4,1.6,5.1,1,1,2.7,1.6,5.1,1.6h30c2.3,0,4-.5,5.1-1.6s1.6-2.7,1.6-5.1V36.3c0-.3.3-.6.6-.6h26.6c2.3,0,4-.5,5.1-1.6s1.6-2.7,1.6-5.1V6.7c0-2.3-.5-4-1.6-5.1Zm-13.6,22.4c-2.5,0-4.7-1.5-5.7-3.6-.1-.2-.3-.4-.5-.4h-12.7c-.2,0-.5.2-.6.4l-1.2,3-1.9,4.6c-.3.8-1.2,1.4-2.1,1.4s-1.7-.6-2.1-1.4l-3.2-8-.7-1.8c0-.1-.1-.3-.1-.5l-1-2.6-.3-.8s0,0,0,0c0-.1-.1-.2-.3-.2s-.2,0-.3.2c0,0,0,0,0,0l-.3.8-1.1,2.6c0,.1,0,.3-.1.5l-.7,1.8-2.9,7.3-.3.7c-.3.7-.8,1.3-1.6,1.4-1.1.3-2.2-.3-2.7-1.3l-.4-.9-2.9-7.1-.7-1.8-1.2-3.1-.3-.8c0-.1-.2-.2-.3-.2s-.2,0-.2.2h0c0,0-.3.9-.3.9l-1.1,2.6c0,.1,0,.3-.1.5l-.7,1.8-3.2,8c-.4.8-1.2,1.4-2.1,1.4s-1.7-.6-2.1-1.4l-1.9-4.8-1.2-2.9c0-.2-.3-.4-.6-.4h-12.7c-.2,0-.4.1-.5.4-1,2-2.9,3.4-5.2,3.5-3.6.3-6.8-2.6-6.8-6.2,0-3.6,2.8-6.5,6.3-6.5s4.7,1.5,5.7,3.6c.1.2.3.4.5.4h14.7c.8,0,1.6.6,1.9,1.4l1.4,3.4.2.5s0,0,0,0c0,.1.2.2.3.2s.2,0,.3-.2c0,0,0,0,0,0l.2-.5,1.2-3c0-.1,0-.3.1-.4l.6-1.4,3.4-8.4c.1-.3.3-.6.6-.8.4-.4.9-.6,1.5-.6s1.1.2,1.5.6c.2.2.5.5.6.8l3.4,8.4.6,1.4,1.3,3.2c.2.5.9.5,1.1,0l1.1-2.8c0-.2,0-.3.1-.5l.6-1.4,3.4-8.4c.1-.3.3-.6.6-.8.4-.4.9-.6,1.5-.6s1.1.2,1.5.6c.3.2.5.5.6.8l3.4,8.4.6,1.4c0,.2.1.3.1.5l1.2,3,.2.5s0,0,0,0c0,.1.2.2.3.2s.2,0,.3-.2c0,0,0,0,0,0l.2-.5,1.4-3.4c.3-.8,1.1-1.3,1.9-1.4h14.7c.2,0,.4-.1.5-.4,1-2,2.9-3.4,5.2-3.6,3.6-.3,6.8,2.6,6.9,6.2,0,3.5-2.8,6.4-6.4,6.4Z"/>
  <g>
    <path class="b" d="m170.7,30.5c-1.3,0-2.5-.8-3-2l-4.9-12.1-.7,1.8c0,.2,0,.4-.2.5l-3.9,9.8c-.5,1.2-1.7,2-3,2s-2.5-.8-3-2l-3-7.4h-12.2c-1.1,2.2-3.4,3.7-5.9,3.9-.2,0-.4,0-.6,0-3.9,0-7.3-3.3-7.4-7.2,0-2,.7-3.9,2.1-5.3,1.4-1.4,3.2-2.2,5.2-2.2s5.2,1.5,6.5,3.9h14.4c1.3,0,2.4.9,2.8,2l.9,2.3.7-1.8c0-.2,0-.3.1-.5l4-9.8c.2-.5.5-.9.9-1.2.6-.5,1.3-.8,2.1-.8s1.6.3,2.2.8c.4.3.7.7.9,1.2l4.9,12.1.7-1.8c0-.2.1-.4.2-.5l.6-1.4,3.4-8.4c.2-.5.5-.9.9-1.2.6-.5,1.3-.8,2.1-.8s1.6.3,2.1.8c.4.3.7.7.9,1.2l3.4,8.4.6,1.4c0,.2.1.4.2.5l.7,1.8.9-2.3c.5-1.2,1.5-1.9,2.8-2h14.5c1.2-2.2,3.4-3.7,5.9-3.9.2,0,.4,0,.6,0,3.9,0,7.3,3.3,7.4,7.2,0,2-.7,3.9-2.1,5.3-1.4,1.4-3.3,2.2-5.2,2.2s-5.2-1.5-6.5-3.9h-12.2l-3,7.4c-.5,1.2-1.7,2-3,2s-2.5-.8-3-2l-3.9-9.8c0-.2-.1-.4-.2-.5l-.7-1.8-.7,1.8c0,.2,0,.4-.2.5l-3.9,9.7c-.4,1-1.3,1.8-2.2,2-.3,0-.5.1-.8.1Z"/>
    <path class="b" d="m217.4,17.5c0,3.5-2.8,6.4-6.4,6.4s-4.7-1.5-5.7-3.6c-.1-.2-.3-.4-.5-.4h-12.7c-.2,0-.5.2-.6.4l-1.2,3-1.9,4.6c-.3.8-1.2,1.4-2.1,1.4s-1.7-.6-2.1-1.4l-3.2-8-.7-1.8c0-.1-.1-.3-.1-.5l-1-2.6-.3-.8s0,0,0,0c0-.1-.1-.2-.3-.2s-.2,0-.3.2c0,0,0,0,0,0l-.3.8-1.1,2.6c0,.1,0,.3-.1.5l-.7,1.8-2.9,7.3-.3.7c-.3.7-.8,1.3-1.6,1.4-1.1.3-2.2-.3-2.7-1.3l-.4-.9-2.9-7.1-.7-1.8-1.2-3.1-.3-.8c0-.1-.2-.2-.3-.2s-.2,0-.2.2c0,0,0,0,0,0l-.3.8-1.1,2.6c0,.1,0,.3-.1.5l-.7,1.8-3.2,8c-.4.8-1.2,1.4-2.1,1.4s-1.7-.6-2.1-1.4l-1.9-4.8-1.2-2.9c0-.2-.3-.4-.6-.4h-12.7c-.2,0-.4.1-.5.4-1,2-2.9,3.4-5.2,3.5-3.6.3-6.8-2.6-6.8-6.2,0-3.6,2.8-6.5,6.3-6.5s4.7,1.5,5.7,3.6c.1.2.3.4.5.4h14.7c.8,0,1.6.6,1.9,1.4l1.4,3.4.2.5s0,0,0,0c0,.1.2.2.3.2s.2,0,.3-.2c0,0,0,0,0,0l.2-.5,1.2-3c0-.1,0-.3.1-.4l.6-1.4,3.4-8.4c.1-.3.3-.6.6-.8.4-.4.9-.6,1.5-.6s1.1.2,1.5.6c.2.2.5.5.6.8l3.4,8.4.6,1.4,1.3,3.2c.2.5.9.5,1.1,0l1.1-2.8c0-.2,0-.3.1-.5l.6-1.4,3.4-8.4c.1-.3.3-.6.6-.8.4-.4.9-.6,1.5-.6s1.1.2,1.5.6c.3.2.5.5.6.8l3.4,8.4.6,1.4c0,.2.1.3.1.5l1.2,3,.2.5s0,0,0,0c0,.1.2.2.3.2s.2,0,.3-.2c0,0,0,0,0,0l.2-.5,1.4-3.4c.3-.8,1.1-1.3,1.9-1.4h14.7c.2,0,.4-.1.5-.4,1-2,2.9-3.4,5.2-3.6,3.6-.3,6.8,2.6,6.9,6.2Z"/>
  </g>
  <path class="b" d="m170.6,125.5c-3.6,0-6.8-2.9-7.2-6.5-.4-3,1.2-6,3.9-7.4V43.2c-.6,0-1.1-.5-1.4-1-.3-.6-.3-1.4,0-2l.2-.3,3-4.5c.3-.5,1-.9,1.6-.9s1.3.3,1.6.9l3,4.5.2.3c.4.6.4,1.4,0,2-.3.5-.8.9-1.4,1v68.4c2.4,1.3,3.9,3.8,3.9,6.5,0,4.1-3.3,7.3-7.3,7.3h0Z"/>
  <path class="b" d="m177,118.1c0,3.5-2.9,6.4-6.4,6.3-3.1,0-5.9-2.5-6.2-5.6-.3-2.8,1.2-5.4,3.5-6.5.2-.1.3-.3.3-.5,0-23.5,0-46,0-69.5,0,0,0,0,0-.1,0,0,0,0,0,0,0,0,0,0-.1,0-.2,0-.4,0-.6,0-.3,0-.7-.2-.8-.5-.2-.3-.2-.6,0-1l.2-.3,1.3-2,1.7-2.5c.4-.6,1.2-.6,1.5,0l1.7,2.5,1.3,2,.2.3c.4.6,0,1.4-.8,1.4h-.6s0,0,0,0c0,0,0,0,0,.1,0,23.5,0,46,0,69.5,0,.1,0,.4.3.5,2.1,1,3.6,3.2,3.6,5.7Z"/>
  <path class="b" d="m20.4,125.5c-2,0-3.9-.9-5.3-2.4-1.4-1.5-2.1-3.5-1.9-5.5.2-2.5,1.7-4.8,3.9-5.9v-24.3h-6.2c-1,0-1.9-.5-2.5-1.3-.5-.6-.7-1.4-.7-2.1,0-1.9,1.4-3.4,3.2-3.4h20c1.8,0,3.2,1.5,3.2,3.4s-.3,1.6-.7,2.2c-.6.8-1.5,1.3-2.5,1.3h-7v24.3c2.4,1.3,3.9,3.8,3.9,6.5,0,4.1-3.3,7.3-7.3,7.4,0,0-.1,0-.1,0Z"/>
  <path class="b" d="m33.2,83.8c0,.6-.2,1.1-.5,1.5-.4.5-1,.9-1.7.9h-7.4c-.3,0-.6.3-.6.6v25c0,.2.1.4.3.5,2.1,1,3.6,3.2,3.6,5.7s-2.9,6.4-6.4,6.3-6.5-3.3-6.2-6.8,1.6-4.3,3.6-5.2.3-.3.3-.5c0-2.9,0-21.4,0-25s-.3-.6-.6-.6h-6.6c-.7,0-1.3-.3-1.7-.9-.3-.4-.5-1-.5-1.5,0-1.3,1-2.4,2.2-2.4h20c1.2,0,2.2,1.1,2.2,2.4Z"/>
  <path class="b" d="m94.5,125.5c-3.6,0-6.8-2.9-7.2-6.5-.4-3,1.2-6,3.9-7.4v-24.3h-51.9c-.1,0-.2,0-.4,0-.9,0-1.7-.5-2.3-1.2-.5-.6-.8-1.4-.8-2.2,0-1.8,1.3-3.2,3.1-3.4.1,0,.2,0,.4,0h51.9v-3.2c0-3.2-.3-6.1-.8-8.8-.5-2.7-1.2-5.2-2-7.6l-12.7-30c-1.3-3.1-2.7-5.6-4-7.6-1-1.5-2.7-2.2-5.3-2.2h-18.1c-2.8,0-4.7.7-5.7,2.2-1.4,2-2.7,4.5-3.8,7.4l-11.8,30.3c-.8,2.3-1.5,4.8-2,7.5-.3,1.4-.5,1.9-.6,3.5h6.8c1.3,0,2.5.8,3,2.1.2.4.2.9.2,1.3,0,1.9-1.4,3.4-3.2,3.4H10.9c-1.8,0-3.2-1.5-3.2-3.4s0-.9.2-1.3c.5-1.3,1.7-2.1,3-2.1h6.3c.1-2,.4-3,.7-4.8.6-3,1.4-6,2.4-8.8l11.9-30.4c1.4-3.6,3.1-6.8,4.9-9.3,2.2-3,5.9-4.5,10.9-4.5h18.1c4.9,0,8.5,1.5,10.6,4.6,1.8,2.5,3.5,5.7,5,9.4,0,0,12.8,30.3,12.8,30.3,1,2.8,1.8,5.8,2.4,8.8.6,3,.9,6.4.9,10v34.4c2.4,1.3,3.9,3.8,3.9,6.5,0,4.1-3.3,7.4-7.3,7.4s0,0,0,0Z"/>
  <path class="b" d="m100.9,118.1c0,3.5-2.9,6.4-6.4,6.3s-5.9-2.5-6.2-5.6,1.2-5.4,3.5-6.5.3-.3.3-.5v-25c0-.3-.3-.6-.6-.6h-52.3c0,0-.2,0-.3,0-.7,0-1.2-.4-1.6-.9-.3-.4-.6-1-.6-1.5,0-1.2.9-2.3,2.2-2.4,0,0,.2,0,.3,0s0,0,.1,0h0s52.2,0,52.2,0c.3,0,.6-.3.6-.6v-3.6c0-3.2-.3-6.2-.8-9-.5-2.7-1.2-5.3-2.1-7.8l-12.7-30.1c-1.3-3.1-2.7-5.7-4.1-7.8-1.2-1.7-3.2-2.6-6.2-2.6h-18.1c-3.2,0-5.3.8-6.5,2.6-1.4,2.1-2.7,4.6-3.9,7.6l-11.8,30.3c-.8,2.3-1.5,4.9-2,7.7-.3,1.6-.5,2.3-.7,4.1s.3.7.6.7h7.2c.9,0,1.7.6,2,1.5,0,.3.2.6.2.9,0,1.3-1,2.4-2.2,2.4H11c-1.2,0-2.2-1.1-2.2-2.4s0-.6.2-.9c.3-.9,1.1-1.5,2-1.5h6.7c.3,0,.6-.2.6-.6.1-2.1.4-3.1.7-5,.6-3,1.4-5.9,2.4-8.7l11.9-30.4c1.4-3.6,3-6.6,4.8-9,2-2.7,5.4-4.1,10.1-4.1h18.1c4.6,0,7.9,1.4,9.8,4.2,1.7,2.4,3.4,5.5,4.9,9.2l12.8,30.2s0,0,0,0c1,2.8,1.8,5.7,2.4,8.7.6,3,.9,6.3.9,9.8v34.7c0,.2.1.4.3.5,2.1,1,3.6,3.2,3.6,5.7Z"/>
  <g>
    <path class="c" d="m345.1,86.2c-1-1-2.8-1.6-5.1-1.6h-26.8c-2.3,0-4,.5-5.1,1.6-1,1-1.6,2.7-1.6,5.1v7h-25.4V6.7c0-2.3-.5-4-1.6-5.1C278.5.5,276.8,0,274.5,0h-28.7c-2.3,0-4,.5-5.1,1.6-1,1-1.6,2.8-1.6,5.1v120c0,2.3.5,4,1.6,5.1,1.1,1,2.8,1.6,5.1,1.6h94.2c2.3,0,4-.5,5.1-1.6,1-1,1.6-2.8,1.6-5.1v-35.3c0-2.3-.5-4-1.6-5.1Z"/>
    <path class="b" d="m268.6,122.8c-1.1,0-2.2-.1-3.3-.4-2.3-.6-4.3-1.9-5.8-3.6-1.8-2.1-2.8-4.9-2.8-8V21.7c-2.6-1.4-4.2-4.3-3.9-7.3.2-2.4,1.7-4.6,3.9-5.7,1.1-.6,2.2-.9,3.4-.9,2,0,3.9.9,5.3,2.4,1.4,1.5,2.1,3.6,2,5.6-.2,2.5-1.7,4.7-3.9,5.9v82.5c0,1.3,0,2.7,0,4.1,0,1,0,2,0,3,0,.6.1,1.1.3,1.6.7,1.8,2.4,2.9,4.4,3h.3c1.9,0,3.7-1.2,4.4-3,.1-.4.3-.7.3-1.2,0-.6-.1-1.9.9-3,.7-.7,1.6-1,2.6-1,1,0,1.9.4,2.5,1,1,1.1,1,2.4.9,2.9h0c0,.5.2.9.3,1.2.8,1.9,2.6,3,4.6,3,2,0,3.7-1.2,4.4-3,.2-.4.3-.7.3-1.1,0,0,0,0,0,0,0-.6,0-1.9,1-2.9.7-.7,1.5-1,2.5-1,1,0,1.9.4,2.5,1.1,1,1.1.9,2.4.9,3h0c0,.5.2.8.3,1.2.7,1.8,2.6,3,4.7,3,2,0,3.7-1.2,4.5-3,.1-.4.2-.7.3-1.2h0c0-.6,0-1.9.9-3,.7-.7,1.5-1,2.5-1s1.9.4,2.5,1c1,1.1,1,2.4.9,2.9h0c0,.5.2.9.3,1.2.8,1.9,2.5,3,4.5,3s.2,0,.3,0c2-.1,3.6-1.2,4.2-3,.1-.4.2-.7.3-1.1,0-.3,0-.6,0-.9,0-1.5,0-3,0-4.6-.8-.4-1.5-.9-2-1.5-.5-.6-1.3-1.6-1.7-3-.2-.7-.3-1.4-.3-2s0-.7,0-1.1c.4-2.7,2.2-4.9,4.7-5.8.8-.3,1.6-.5,2.5-.5s1.9.2,2.8.6c2.4,1,4.1,3.2,4.5,5.7,0,.3,0,.7,0,1.1,0,1.9-.7,3.7-2,5-.5.6-1.1,1-1.8,1.4,0,1.7,0,3.4,0,5.2,0,.6,0,1.1-.1,1.6-.3,2.1-1.3,4.2-2.7,5.8-2.2,2.5-5.4,4-8.8,4s-1.9-.1-2.8-.3c-2.2-.5-4-1.5-5.6-3.1-2.2,2.2-5,3.4-8.3,3.4-3.3,0-6.1-1.1-8.3-3.4-2.3,2.2-5.2,3.4-8.3,3.4s-6-1.2-8.3-3.4c-2.2,2.2-5.1,3.4-8.2,3.4Z"/>
    <path class="b" d="m332.8,99.8c0,1.7-.7,3.2-1.7,4.3-.5.5-1.1,1-1.7,1.3s-.3.3-.3.5c0,1.8,0,3.6,0,5.4,0,.5,0,1-.1,1.5-.3,2-1.2,3.8-2.5,5.3-2,2.2-4.8,3.7-8,3.7s-1.7,0-2.6-.3c-2.3-.5-4.1-1.7-5.6-3.3,0,0-.1-.1-.2-.2,0,0-.1.2-.2.2-2.1,2.4-4.8,3.6-8.1,3.6-3.3,0-6-1.2-8.1-3.6,0,0-.1-.1-.2-.2,0,0-.1.1-.2.2-2.1,2.3-5,3.6-8.1,3.6s-5.9-1.3-8.1-3.6c0,0-.1-.1-.2-.2,0,0-.1.2-.2.2-2.1,2.3-4.9,3.7-8,3.7s-2-.1-3-.4c-2.2-.6-4-1.7-5.3-3.2-1.6-1.9-2.5-4.4-2.5-7.3V21.4c0-.2-.1-.4-.3-.5-2.3-1.1-3.8-3.6-3.5-6.4s1.5-3.9,3.4-4.9c4.7-2.5,9.6,1.6,9.2,6.1-.2,2.3-1.6,4.2-3.5,5.2s-.3.3-.3.5v79.1c0,1.1,0,2.4,0,3.6s0,2.7,0,4.1c0,1,0,2,0,3,0,.7.1,1.4.4,2,.8,2.1,2.8,3.5,5.3,3.6h.3c2.4,0,4.5-1.5,5.4-3.6.2-.5.3-1,.4-1.5h0c0-.6,0-1.5.6-2.3.3-.3.9-.7,1.8-.7.7,0,1.3.3,1.8.7.7.8.7,1.7.7,2.2v.2c0,.5.2,1,.4,1.5.9,2.2,3,3.6,5.5,3.6,2.4,0,4.5-1.5,5.4-3.6.2-.5.3-1,.4-1.5,0,0,0,0,0-.1,0-.6,0-1.5.7-2.2.3-.3.9-.7,1.8-.7.7,0,1.3.3,1.8.8.7.8.7,1.7.6,2.2v.2c0,.5.2,1,.4,1.5.9,2.2,3,3.6,5.6,3.6,2.4,0,4.5-1.5,5.4-3.6.2-.5.3-1,.4-1.5h0c0-.7,0-1.6.7-2.4.5-.5,1.1-.7,1.8-.7s1.3.2,1.8.7c.7.8.7,1.7.7,2.2v.2c0,.5.2,1,.4,1.5.9,2.3,3.2,3.8,5.8,3.6,2.5-.2,4.3-1.5,5.1-3.6.2-.4.3-.9.3-1.3,0-.3,0-.7,0-1,0-1.6,0-3.2,0-4.8s-.1-.4-.3-.5c-.5-.2-1.3-.7-2-1.4-.3-.3-1.1-1.2-1.5-2.6-.2-.6-.3-1.2-.3-1.8s0-.6,0-.9c.3-2.3,1.9-4.3,4.1-5,.7-.3,1.4-.4,2.2-.4s1.7.2,2.4.5c2,.8,3.5,2.7,3.8,5,0,.3,0,.6,0,.9Z"/>
  </g>
</svg>